<?xml version="1.0" standalone="no"?>
<!DOCTYPE svg PUBLIC "-//W3C//DTD SVG 20010904//EN"
 "http://www.w3.org/TR/2001/REC-SVG-20010904/DTD/svg10.dtd">
<svg version="1.0" xmlns="http://www.w3.org/2000/svg"
 width="512.000000pt" height="512.000000pt" viewBox="0 0 512.000000 512.000000"
 preserveAspectRatio="xMidYMid meet">
<metadata>
Created by potrace 1.16, written by Peter Selinger 2001-2019
</metadata>
<defs>
  <radialGradient id="rainbow" cx="50%" cy="50%" r="75%" fx="50%" fy="50%">
    <stop offset="0%" stop-color="#FF0000"/>
    <stop offset="16%" stop-color="#FF8000"/>
    <stop offset="33%" stop-color="#FFFF00"/>
    <stop offset="50%" stop-color="#00FF00"/>
    <stop offset="66%" stop-color="#0080FF"/>
    <stop offset="83%" stop-color="#4B0082"/>
    <stop offset="100%" stop-color="#8B00FF"/>
  </radialGradient>
</defs>
<g transform="translate(0.000000,512.000000) scale(0.100000,-0.100000)"
fill="url(#rainbow)" stroke="none">
<path d="M2587 3950 c-8 -22 -18 -30 -37 -30 -37 -1 -315 -277 -355 -354 -39
-73 -59 -72 -63 5 -5 90 -13 94 -196 94 -131 0 -156 -3 -191 -20 -40 -20 -40
-20 -43 -83 -3 -62 -3 -63 -30 -60 -24 3 -28 8 -33 46 -3 24 -12 48 -20 53
-22 14 -223 11 -237 -3 -7 -7 -12 -31 -12 -54 l0 -41 -63 -5 c-104 -9 -226
-85 -291 -181 -26 -40 -46 -59 -71 -67 -45 -15 -75 -54 -75 -96 0 -36 28 -74
55 -74 13 0 15 -24 15 -157 0 -272 39 -1082 64 -1325 15 -138 25 -166 79 -199
63 -38 98 -42 802 -80 l230 -13 101 -53 c117 -61 183 -80 303 -88 151 -11 302
28 426 110 218 145 376 389 416 642 17 113 15 302 -6 398 -54 257 -222 503
-437 643 -223 144 -501 154 -738 25 -101 -55 -231 -164 -283 -238 -11 -16 11
0 49 36 131 124 239 192 374 234 214 67 425 34 607 -94 283 -200 450 -558 414
-885 -37 -323 -219 -607 -481 -749 -267 -145 -586 -76 -831 179 -119 125 -208
282 -250 439 -14 54 -27 85 -36 85 -8 0 -13 -12 -13 -32 0 -52 36 -211 58
-262 l21 -46 -98 0 c-54 0 -133 3 -175 6 l-77 7 3 589 c2 387 0 588 -7 588 -5
-1 -35 -11 -65 -24 l-55 -22 4 -220 c11 -738 16 -881 30 -898 12 -15 7 -16
-54 -16 -85 0 -241 36 -266 61 -11 11 -19 33 -19 52 0 17 -9 187 -20 377 -18
319 -40 791 -40 868 l0 33 32 -17 c92 -48 244 -58 344 -24 54 19 91 40 69 40
-6 0 -48 -7 -94 -15 -108 -19 -210 -8 -305 32 l-38 17 5 59 c11 124 99 242
226 304 41 21 72 27 135 30 103 5 137 -1 170 -32 40 -37 34 -62 -35 -127 -33
-32 -56 -58 -52 -58 5 0 14 5 21 12 7 7 12 9 12 6 0 -13 -93 -73 -107 -70 -8
2 -12 -1 -9 -6 9 -15 -81 -42 -139 -42 -91 0 -108 48 -45 120 23 26 27 28 15
8 -10 -16 -15 -42 -13 -65 2 -31 8 -39 30 -47 29 -10 149 11 130 23 -6 3 9 15
34 25 24 10 41 22 38 27 -3 5 3 6 12 2 11 -4 15 -2 11 4 -3 5 7 23 24 39 56
53 74 109 43 134 -18 16 -103 30 -110 19 -2 -5 -11 -6 -18 -3 -21 8 -56 -14
-131 -80 -81 -72 -115 -120 -121 -177 -9 -71 -6 -83 22 -107 25 -22 35 -24
103 -20 89 4 128 21 301 128 126 78 193 136 218 190 l17 35 160 22 c88 12 175
22 192 22 l33 1 -21 -52 c-12 -29 -42 -109 -66 -178 -25 -69 -46 -126 -47
-127 -1 -2 -79 -4 -172 -6 -192 -3 -200 -5 -337 -95 -127 -83 -171 -97 -314
-97 -126 0 -139 -10 -32 -25 127 -18 231 15 408 130 l84 55 94 3 93 4 0 -25
c0 -60 -51 -267 -83 -337 -39 -84 -71 -191 -88 -295 -14 -89 -14 -379 1 -469
13 -82 56 -218 77 -243 14 -17 14 -17 8 2 -62 190 -81 340 -65 522 32 374 133
588 373 787 154 129 285 185 482 205 237 24 452 -46 605 -199 133 -132 271
-372 307 -532 19 -85 22 -87 98 -68 27 7 25 8 -16 9 -48 1 -59 11 -59 52 0 18
5 20 43 15 23 -3 69 -8 101 -12 92 -9 86 0 86 -148 -1 -324 -24 -442 -93 -485
-32 -19 -124 -47 -132 -40 -9 9 29 289 39 289 34 0 88 24 102 45 38 58 40 173
5 216 -21 26 -151 45 -151 22 0 -8 13 -13 35 -13 58 0 75 -26 75 -116 0 -94
-10 -114 -55 -114 l-35 0 -1 78 c-2 173 -16 112 -21 -93 -5 -178 -9 -235 -26
-296 -61 -228 -287 -526 -472 -623 -118 -62 -138 -64 -686 -58 -470 5 -833 -6
-974 -28 -49 -8 -47 -8 25 -4 44 2 312 7 595 10 414 5 529 4 585 -7 53 -11
149 -13 390 -11 270 3 351 0 518 -17 288 -31 403 -27 438 15 20 25 -8 36 -40
16 -33 -22 -205 -28 -342 -12 -57 7 -207 15 -334 19 l-230 6 59 23 c75 29 189
104 224 148 l26 33 261 -6 c347 -8 345 -9 472 160 l76 102 13 310 c7 171 17
475 20 677 l7 367 28 6 c34 8 69 49 69 80 0 42 -36 74 -87 77 l-46 3 -14 55
c-25 100 -60 159 -109 183 l-44 21 0 58 c0 54 -2 59 -30 73 -68 35 -307 65
-384 48 -33 -7 -41 -14 -48 -40 -8 -31 -10 -29 -72 92 -35 68 -85 156 -112
195 -27 39 -54 80 -59 90 -33 56 -44 59 -255 65 -83 3 -160 9 -170 15 -10 5
-49 10 -85 10 -65 0 -67 -1 -78 -30z m149 -5 c5 -11 23 -15 78 -15 39 0 78 -5
86 -11 11 -8 -29 -9 -139 -5 -84 3 -156 8 -159 10 -2 3 -2 12 1 21 9 21 125
22 133 0z m302 -21 c37 -9 73 -18 80 -20 6 -2 12 -9 12 -15 0 -8 -19 -10 -62
-5 -72 6 -138 17 -138 21 0 16 15 35 27 35 8 0 45 -7 81 -16z m-48 -57 c37
-18 31 -32 -15 -35 -78 -6 -282 -43 -447 -82 -92 -22 -171 -40 -175 -40 -4 0
33 40 82 90 67 68 96 90 119 92 67 6 411 -13 436 -25z m202 -54 c8 -10 53 -92
100 -183 80 -154 85 -166 71 -187 -18 -27 -11 -39 33 -58 71 -29 183 -46 352
-52 146 -5 177 -9 195 -24 l22 -18 -40 -17 c-27 -12 -77 -19 -152 -22 -87 -3
-113 -8 -113 -18 0 -11 22 -14 98 -14 87 0 144 10 204 35 14 5 20 -5 37 -63
12 -38 21 -72 21 -75 0 -4 -23 -9 -50 -13 -33 -4 -54 -13 -60 -24 -5 -10 -21
-21 -35 -24 -34 -9 -34 -50 0 -72 20 -13 39 -14 102 -9 109 9 151 21 158 46 7
22 -18 69 -37 69 -6 0 -9 3 -6 6 10 9 46 -14 58 -37 14 -26 4 -56 -24 -75 -25
-16 -285 -54 -371 -54 l-53 0 -7 68 c-13 144 -19 158 -80 172 -22 5 -90 10
-151 10 -88 0 -113 -3 -117 -14 -6 -14 -1 -121 8 -193 3 -26 0 -32 -18 -36
-40 -6 41 -16 196 -23 l147 -6 0 -199 0 -199 -37 0 c-21 0 -68 3 -105 6 -67 7
-68 7 -79 43 -40 121 -140 295 -243 420 -33 40 -45 64 -50 101 -12 89 -36 146
-107 256 l-70 109 118 12 c65 7 124 15 131 18 6 2 12 20 12 40 0 28 4 35 20
35 16 0 20 7 20 30 0 30 -1 30 -55 30 l-55 0 0 -64 0 -64 -87 -7 c-49 -4 -96
-9 -105 -11 -34 -10 -23 130 23 288 19 66 20 67 57 71 86 9 109 7 124 -10z
m-202 -16 c0 -8 -9 -56 -20 -108 -11 -52 -20 -119 -20 -151 0 -36 -5 -58 -12
-61 -20 -7 -691 5 -712 13 -17 6 -26 -14 -87 -190 -37 -109 -74 -211 -82 -226
-8 -16 -42 -53 -74 -81 -33 -28 -77 -74 -98 -102 -21 -28 -41 -49 -43 -46 -3
2 6 56 18 119 l23 115 69 -2 70 -2 39 110 c52 148 110 286 126 306 7 8 13 22
13 30 0 27 61 119 88 132 35 19 286 79 482 116 85 17 164 32 175 34 37 8 45 7
45 -6z m-940 -156 l45 -8 -35 -6 c-19 -3 -102 -8 -185 -11 -111 -4 -145 -3
-132 5 42 25 213 36 307 20z m31 -54 c-10 -9 -11 -8 -5 6 3 10 9 15 12 12 3
-3 0 -11 -7 -18z m-330 -47 c5 0 9 11 9 25 0 34 28 32 33 -2 4 -26 4 -26 6 5
0 17 6 32 11 32 6 0 11 -15 12 -32 l1 -33 4 33 c5 40 23 42 23 2 0 -41 20 -38
21 3 l2 32 6 -33 c3 -18 11 -33 16 -33 6 0 13 15 16 33 l6 33 2 -32 c1 -41 21
-44 21 -3 0 42 17 38 22 -5 l4 -36 -115 3 -116 3 -2 33 c-3 32 -3 32 3 2 3
-16 9 -30 15 -30z m236 13 c-3 -10 -5 -2 -5 17 0 19 2 27 5 18 2 -10 2 -26 0
-35z m35 17 c3 -16 1 -30 -4 -30 -4 0 -8 14 -8 30 0 17 2 30 4 30 2 0 6 -13 8
-30z m37 -2 c0 -28 -2 -30 -9 -13 -12 28 -12 45 0 45 6 0 10 -15 9 -32z m38
-10 c-3 -8 -6 -5 -6 6 -1 11 2 17 5 13 3 -3 4 -12 1 -19z m-579 -5 c-83 -4
-88 -5 -89 -26 -1 -20 -2 -20 -6 -2 -3 11 -10 23 -17 27 -6 4 36 7 94 6 l105
-2 -87 -3z m2032 -23 c-24 -7 -23 -7 10 -13 19 -3 80 -8 135 -11 55 -2 111 -9
125 -14 22 -8 17 -10 -37 -17 -82 -9 -147 -1 -283 36 -41 11 -43 13 -20 20 14
4 41 7 60 7 31 0 32 -1 10 -8z m113 -7 c-7 -2 -21 -2 -30 0 -10 3 -4 5 12 5
17 0 24 -2 18 -5z m-1548 -34 c-22 -4 -128 -22 -237 -39 -184 -29 -198 -30
-227 -16 -17 9 -54 23 -83 30 l-53 15 125 1 c69 1 184 6 255 9 72 4 159 8 195
8 59 1 62 0 25 -8z m1371 0 c25 -7 41 -15 36 -18 -13 -9 -24 -71 -12 -71 6 0
11 15 11 33 l1 32 8 -30 8 -30 1 33 c0 17 4 32 9 32 4 0 6 -18 4 -40 -3 -25 0
-40 7 -40 6 0 11 17 11 40 0 22 5 40 10 40 6 0 10 -21 10 -47 0 -53 10 -51 20
4 l8 38 1 -42 c1 -55 21 -57 21 -2 0 26 4 38 11 34 6 -4 9 -23 7 -43 -2 -22 2
-37 10 -40 8 -2 12 9 12 37 0 23 5 41 10 41 6 0 10 -18 10 -41 0 -24 4 -38 10
-34 6 3 10 22 10 41 0 19 4 34 9 34 4 0 8 -15 7 -32 -1 -46 18 -46 25 -1 l6
38 2 -37 c0 -21 6 -38 11 -38 6 0 11 17 12 38 l1 37 4 -37 c4 -34 7 -38 31
-38 21 0 24 -2 12 -10 -37 -24 -332 -2 -402 31 -23 10 -23 13 -14 55 6 24 12
44 14 44 2 0 24 -5 48 -11z m-1868 -60 c35 -15 42 -22 42 -46 0 -56 -72 -128
-205 -206 -85 -50 -170 -77 -238 -77 -63 0 -101 18 -105 49 -3 21 -2 22 20 8
77 -48 220 -9 331 92 90 80 118 151 80 194 -17 19 -17 19 7 12 14 -4 44 -15
68 -26z m2229 -16 c-3 -10 -5 -2 -5 17 0 19 2 27 5 18 2 -10 2 -26 0 -35z
m-879 10 c65 -95 155 -303 139 -320 -3 -3 -18 4 -34 15 -51 36 -131 71 -220
98 -72 21 -116 27 -238 31 -133 5 -160 3 -240 -17 -87 -22 -181 -62 -237 -102
-16 -11 -28 -16 -28 -11 0 4 23 81 52 170 l53 163 367 0 367 0 19 -27z m-1638
-3 c-19 -10 -48 -32 -65 -50 -29 -31 -29 -32 -10 -46 13 -10 33 -12 65 -8 31
4 51 1 64 -9 19 -14 19 -14 -1 -34 -32 -32 -110 -58 -140 -47 -57 20 -55 69 5
136 37 41 88 78 107 78 6 -1 -6 -9 -25 -20z m101 10 c22 -13 25 -48 5 -76 -12
-16 -27 -19 -85 -19 -43 0 -71 4 -71 10 0 16 96 86 128 94 2 1 12 -4 23 -9z
m-465 -226 c-4 -15 -10 -39 -13 -55 -8 -42 -27 -36 -20 6 3 19 2 35 -3 35 -16
0 -24 -52 -12 -71 10 -15 9 -17 -3 -13 -36 14 -24 92 18 112 34 16 40 14 33
-14z m302 -11 c-10 -2 -28 -2 -40 0 -13 2 -5 4 17 4 22 1 32 -1 23 -4z m2376
-62 c13 -14 21 -42 27 -102 4 -46 5 -87 1 -91 -4 -4 -72 -4 -152 0 l-145 7 -3
94 c-1 52 0 101 3 109 9 24 243 8 269 -17z m424 -77 c3 -24 -19 -34 -80 -34
-34 0 -38 3 -38 24 0 27 19 35 80 32 28 -1 36 -6 38 -22z m-142 -32 c-10 -10
-29 15 -21 28 6 9 10 8 17 -4 6 -10 7 -20 4 -24z m114 -205 c0 -74 -4 -127
-11 -134 -7 -7 -18 -205 -30 -549 -15 -398 -23 -542 -33 -552 -9 -9 -242 -62
-273 -62 -2 0 -1 84 2 188 5 130 11 199 22 227 10 28 18 109 25 264 10 229 7
285 -16 298 -10 6 -15 60 -20 211 l-6 202 77 1 c43 0 114 6 158 13 44 7 86 14
93 15 9 1 12 -30 12 -122z m-2633 -474 c-1 -59 -3 -13 -3 102 0 116 2 164 3
108 2 -56 2 -151 0 -210z m10 -265 c-3 -8 -6 -5 -6 6 -1 11 2 17 5 13 3 -3 4
-12 1 -19z m2253 -378 l-5 -165 -55 -3 c-30 -2 -97 -1 -147 3 l-93 7 17 31 c9
18 31 68 49 112 35 87 33 85 117 110 32 9 73 29 90 45 18 16 32 28 32 27 0 -1
-2 -76 -5 -167z m-2540 -52 c56 -17 111 -21 383 -28 175 -4 319 -9 321 -11 1
-2 19 -34 39 -71 20 -36 54 -88 75 -115 21 -26 42 -54 47 -62 7 -12 -21 -13
-191 -7 -441 15 -633 34 -704 71 -42 21 -56 61 -63 168 -4 79 -3 88 12 81 9
-4 45 -16 81 -26z m2813 -139 c-38 -60 -92 -116 -126 -132 -21 -11 -74 -19
-138 -22 -99 -6 -102 -5 -71 9 18 9 61 44 95 78 61 62 63 63 147 79 119 23
115 24 93 -12z m-380 5 c108 -7 108 -8 68 -78 -39 -69 -86 -84 -257 -78 l-122
4 57 85 56 84 50 -5 c28 -3 94 -9 148 -12z m142 -34 c-20 -23 -29 -21 -19 4 3
9 13 16 22 16 13 0 12 -3 -3 -20z"/>
<path d="M3238 3437 c-65 -14 -61 -30 5 -20 28 4 62 7 75 8 12 0 22 6 22 13 0
14 -34 14 -102 -1z"/>
<path d="M3440 3456 c0 -22 6 -36 16 -40 13 -5 15 -2 10 16 -3 13 -6 31 -6 41
0 9 -4 17 -10 17 -5 0 -10 -15 -10 -34z"/>
<path d="M3474 3458 c3 -13 6 -29 6 -36 0 -7 5 -10 10 -7 17 11 12 65 -6 65
-12 0 -15 -6 -10 -22z"/>
<path d="M2220 3358 c-24 -40 -27 -88 -5 -88 9 0 18 13 22 31 l6 31 321 -6
c177 -4 347 -9 379 -12 61 -5 66 -1 39 32 -34 43 -47 44 -401 44 l-341 0 -20
-32z"/>
<path d="M3490 3032 l0 -49 57 -6 c32 -3 62 -2 66 2 5 5 7 28 5 52 l-3 44 -62
3 -63 3 0 -49z m100 8 c0 -5 -18 -10 -40 -10 -22 0 -40 5 -40 10 0 6 18 10 40
10 22 0 40 -4 40 -10z m0 -36 c0 -2 -18 -4 -40 -4 -22 0 -40 3 -40 8 0 4 18 6
40 4 22 -2 40 -6 40 -8z"/>
<path d="M3926 2809 c-97 -85 -123 -115 -112 -126 7 -8 199 16 209 26 4 4 6
48 5 97 l-3 90 -99 -87z"/>
<path d="M1879 3274 c-52 -55 -20 -144 53 -144 41 0 63 14 78 49 36 88 -67
163 -131 95z m104 -25 c17 -24 18 -30 6 -55 -11 -22 -22 -30 -47 -32 -43 -4
-62 12 -62 54 0 23 7 38 23 49 30 21 56 16 80 -16z"/>
<path d="M2770 3116 c0 -3 33 -24 73 -47 172 -100 282 -189 366 -299 73 -96
114 -161 145 -232 50 -112 55 -148 61 -427 3 -145 7 -266 9 -268 2 -3 10 13
18 34 9 28 13 94 12 243 -1 232 -15 307 -79 435 -75 151 -272 388 -387 466
-78 53 -218 114 -218 95z"/>
<path d="M2761 2873 c98 -67 147 -113 193 -181 40 -59 83 -142 73 -142 -2 0
-18 22 -35 49 -42 65 -161 183 -218 216 -141 83 -351 96 -532 34 -136 -47
-300 -187 -362 -308 -90 -179 -104 -438 -35 -640 44 -130 93 -209 185 -301
143 -142 265 -200 440 -207 78 -3 117 0 150 11 37 13 39 14 11 10 -19 -4 -75
-6 -125 -6 -173 1 -323 69 -466 212 -69 68 -94 102 -127 170 -58 119 -74 191
-80 361 -7 176 8 259 68 379 95 189 324 330 539 330 68 0 179 -23 217 -45 15
-9 19 -13 8 -9 -164 58 -377 32 -523 -63 -181 -120 -295 -391 -278 -660 11
-177 73 -311 201 -438 149 -147 270 -198 470 -199 147 -1 220 21 334 98 290
197 390 590 245 956 -65 163 -181 306 -299 367 -91 47 -118 50 -54 6z m-191
-67 c137 -24 251 -99 330 -216 93 -138 130 -251 130 -401 0 -175 -50 -308
-153 -413 -73 -74 -130 -109 -212 -130 -148 -39 -301 6 -382 112 -48 63 -40
69 14 11 26 -28 70 -63 98 -77 44 -24 62 -27 145 -27 88 0 101 3 163 33 133
66 241 206 282 367 32 125 12 311 -45 425 -29 58 -85 131 -98 128 -4 -1 -27
18 -52 43 -77 75 -194 121 -348 136 -65 6 -72 8 -42 14 56 10 90 9 170 -5z
m-390 -60 c0 -2 -8 -10 -17 -17 -16 -13 -17 -12 -4 4 13 16 21 21 21 13z m489
-35 c68 -32 155 -118 204 -202 46 -78 49 -62 5 24 -45 85 -45 88 -8 42 40 -49
85 -146 94 -201 5 -33 2 -45 -13 -58 -34 -31 -54 -16 -97 71 -46 94 -71 125
-121 148 -47 23 -51 14 -7 -17 131 -94 185 -330 109 -483 -35 -73 -102 -141
-185 -190 -53 -32 -77 -39 -131 -43 -57 -3 -76 0 -128 23 -37 17 -77 45 -103
73 l-41 45 34 12 c32 10 36 9 73 -23 51 -46 94 -62 161 -62 72 0 119 24 179
92 117 129 146 291 81 437 -44 98 -131 161 -221 161 -36 0 -111 -34 -143 -63
-22 -21 -23 -21 -13 -2 15 30 104 111 130 119 58 19 -16 43 -96 32 -149 -20
-292 -169 -347 -360 -18 -63 -24 -187 -13 -276 l7 -55 -16 45 c-21 59 -23 237
-4 305 41 143 149 286 259 340 47 24 73 30 148 33 101 5 145 -5 209 -45 l40
-26 -34 37 c-49 51 -109 71 -208 70 -73 0 -90 -4 -156 -37 -135 -67 -256 -224
-293 -383 -23 -100 -15 -247 19 -336 115 -299 404 -464 658 -374 157 55 295
203 351 376 29 90 36 270 14 363 -23 98 -71 207 -113 258 -36 43 -36 44 -4 14
54 -49 122 -162 148 -243 29 -91 35 -243 14 -332 -42 -170 -170 -347 -309
-425 -87 -49 -182 -75 -274 -75 -87 0 -176 20 -213 47 -19 14 -18 15 10 9 36
-8 24 2 -49 40 -67 35 -194 165 -233 239 -58 111 -78 188 -77 305 0 69 6 127
18 170 44 160 152 316 261 377 72 39 80 41 59 8 -20 -30 -21 -30 52 -4 126 43
224 43 313 0z m-529 6 c0 -1 -24 -25 -52 -52 l-53 -50 50 53 c46 48 55 57 55
49z m730 -42 c13 -14 21 -25 18 -25 -2 0 -15 11 -28 25 -13 14 -21 25 -18 25
2 0 15 -11 28 -25z m-830 -69 c0 -2 -8 -10 -17 -17 -16 -13 -17 -12 -4 4 13
16 21 21 21 13z m314 -103 c-57 -100 -82 -168 -100 -268 -14 -81 -29 -105 -66
-105 -12 0 -25 13 -34 37 -35 83 13 240 99 327 43 42 109 85 134 86 6 0 -9
-35 -33 -77z m-376 2 c-12 -24 -23 -43 -26 -41 -4 5 36 86 43 86 3 0 -5 -20
-17 -45z m657 -53 c81 -56 124 -187 95 -292 -37 -135 -173 -224 -259 -170
l-35 22 49 23 c45 22 49 23 61 7 19 -25 17 -4 -6 56 -47 123 -5 268 82 287 39
9 74 -23 93 -85 7 -25 14 -36 14 -25 1 30 -37 107 -62 128 -51 42 -84 57 -124
57 -81 0 -135 -37 -181 -125 -22 -42 -26 -63 -26 -136 0 -112 32 -185 103
-231 41 -27 43 -30 16 -24 -48 11 -78 38 -108 97 -85 168 -17 377 142 436 47
17 97 8 146 -25z m-694 -33 c-5 -13 -10 -19 -10 -12 -1 15 10 45 15 40 3 -2 0
-15 -5 -28z m-16 -161 c1 -147 15 -216 77 -363 76 -178 177 -310 288 -373 71
-41 56 -41 -24 -1 -148 75 -265 196 -331 342 -35 77 -42 125 -20 141 16 11 16
19 6 78 -12 70 -15 210 -5 271 4 20 7 37 8 37 0 0 1 -60 1 -132z m520 28 c-12
-74 -31 -105 -22 -35 6 43 23 99 30 99 2 0 -2 -29 -8 -64z m-40 -141 c6 -39 5
-47 -5 -39 -20 19 -31 94 -23 153 l8 56 6 -60 c4 -33 10 -82 14 -110z m325
-325 c-53 -46 -137 -83 -194 -88 -44 -4 -57 0 -80 20 l-28 23 46 -3 c70 -6
176 16 231 47 64 37 68 37 25 1z"/>
<path d="M1160 2785 c0 -3 17 -29 39 -58 21 -29 44 -68 50 -87 8 -24 14 -182
18 -492 4 -288 10 -458 16 -458 13 0 -1 921 -14 973 -10 38 -57 100 -90 118
-11 5 -19 7 -19 4z"/>
<path d="M3223 1747 c-129 -252 -362 -426 -623 -466 l-65 -10 74 5 c93 7 184
34 286 87 62 32 101 63 175 137 52 52 110 120 128 151 30 52 77 168 70 175 -2
1 -22 -34 -45 -79z"/>
</g>
</svg>