<?xml version="1.0" encoding="utf-8" ?>
<svg xmlns="http://www.w3.org/2000/svg" xmlns:xlink="http://www.w3.org/1999/xlink" width="469" height="447">
	<defs>
		<linearGradient id="gradient_0" gradientUnits="userSpaceOnUse" x1="98.515266" y1="47.258144" x2="153.6655" y2="146.71735">
			<stop offset="0" stop-color="#F36168"/>
			<stop offset="1" stop-color="#65409F"/>
		</linearGradient>
	</defs>
	<path fill="url(#gradient_0)" d="M11.0492 132.097C10.5027 128.455 10.9999 120.243 11.0067 116.04C11.0244 104.988 10.6633 93.7986 11.1402 82.764Q11.2225 80.9936 11.3916 79.2293Q11.5608 77.465 11.8165 75.7112Q12.0721 73.9574 12.4136 72.2182Q12.7551 70.4791 13.1817 68.7588Q13.6082 67.0385 14.1188 65.3413Q14.6294 63.6441 15.2227 61.974Q15.816 60.3039 16.4907 58.665Q17.1654 57.026 17.9197 55.4223Q18.6741 53.8185 19.5064 52.2537Q20.3387 50.6889 21.2468 49.1669Q22.155 47.6448 23.1368 46.1693Q24.1186 44.6937 25.1718 43.2682Q26.2249 41.8427 27.3469 40.4706Q28.4688 39.0985 29.6568 37.7833Q30.8447 36.468 32.0959 35.2127Q33.3471 33.9573 34.6584 32.765C43.9153 24.3336 56.0703 17.5225 68.3442 14.8833C71.7538 14.1502 75.3259 13.4218 78.8 13.0838C84.0829 12.5698 89.4675 12.7333 94.7701 12.7385L117.445 12.7642L182.016 12.8602C201.825 12.9756 221.637 12.6397 241.448 12.8698C246.213 12.9251 251.055 12.5518 255.803 12.7749C256.187 13.4645 256.052 14.1616 256.039 14.9384C256.514 18.9369 256.257 23.192 256.25 27.2205L256.206 48.7936L256.206 89.2058C256.183 93.9485 256.347 98.7127 256.193 103.45C256.497 125.76 256.3 148.116 256.306 170.432C256.307 174.652 256.119 178.87 256.143 183.091L256.227 214.809C256.269 220.944 256.692 229.098 256.054 235.079L256.099 268.317C252.874 267.883 249.498 268.084 246.246 268.094L230.782 268.115L177.913 268.116L70.0588 268.103C50.38 268.095 30.6764 267.863 11.0011 268.136L10.9925 208.769C10.7691 205.652 10.975 202.368 10.9811 199.237L11.0302 179.466C11.0529 163.692 10.6844 147.863 11.0492 132.097Z"/>
	<defs>
		<linearGradient id="gradient_1" gradientUnits="userSpaceOnUse" x1="124.39175" y1="178.63464" x2="137.16161" y2="281.85873">
			<stop offset="0" stop-color="#FF816D"/>
			<stop offset="1" stop-color="#D324A7"/>
		</linearGradient>
	</defs>
	<path fill="url(#gradient_1)" d="M28.2736 188.599C29.3754 188.539 30.4467 188.171 31.5512 188.199C37.1614 188.343 42.5043 190.234 48.1925 190.164C52.8572 190.107 57.8248 190.19 62.4381 189.583C66.138 189.095 69.9494 187.902 73.6715 187.847C74.0811 187.841 74.4835 187.849 74.8931 187.817C78.7479 187.514 86.8105 183.86 90.6963 182.328C95.3039 180.512 99.9961 178.897 104.571 177.001C109.218 175.076 113.907 173.156 118.501 171.107C121.029 169.98 123.479 168.679 126.013 167.567C128.902 166.3 135.33 164.637 137.257 162.343C137.143 161.601 136.878 161.574 136.295 161.136L136.314 160.882L137.23 160.897C138.976 162.731 144.409 169.37 145.816 170.312C149.241 174.534 153.029 178.522 156.677 182.553Q162.856 189.516 169.175 196.353C171.011 193.686 173.718 190.938 176.087 188.722C178.137 188.735 179.722 186.347 181.682 185.837C183.248 185.43 185.044 185.912 186.656 185.777C190.994 185.414 197.128 183.374 200.843 181.231C201.829 180.662 203.017 180.592 204.13 180.422C203.95 180.035 203.912 179.948 203.926 179.503L205.199 179.595C209.687 183.599 213.643 188.695 217.721 193.136L245.463 223.479C248.272 226.535 253.05 232.76 256.054 235.079L256.099 268.317C252.874 267.883 249.498 268.084 246.246 268.094L230.782 268.115L177.913 268.116L70.0588 268.103C50.38 268.095 30.6764 267.863 11.0011 268.136L10.9925 208.769C11.3808 207.398 21.9282 195.916 23.5721 194.02C25.0473 192.141 26.6862 190.383 28.2736 188.599Z"/>
	<defs>
		<linearGradient id="gradient_2" gradientUnits="userSpaceOnUse" x1="89.057289" y1="171.51634" x2="107.18278" y2="235.61134">
			<stop offset="0" stop-color="#FF876B"/>
			<stop offset="1" stop-color="#E33C8E"/>
		</linearGradient>
	</defs>
	<path fill="url(#gradient_2)" d="M28.2736 188.599C29.3754 188.539 30.4467 188.171 31.5512 188.199C37.1614 188.343 42.5043 190.234 48.1925 190.164C52.8572 190.107 57.8248 190.19 62.4381 189.583C66.138 189.095 69.9494 187.902 73.6715 187.847C74.0811 187.841 74.4835 187.849 74.8931 187.817C78.7479 187.514 86.8105 183.86 90.6963 182.328C95.3039 180.512 99.9961 178.897 104.571 177.001C109.218 175.076 113.907 173.156 118.501 171.107C121.029 169.98 123.479 168.679 126.013 167.567C128.902 166.3 135.33 164.637 137.257 162.343C137.143 161.601 136.878 161.574 136.295 161.136L136.314 160.882L137.23 160.897C138.976 162.731 144.409 169.37 145.816 170.312C149.241 174.534 153.029 178.522 156.677 182.553Q162.856 189.516 169.175 196.353C168.569 197.624 167.302 198.828 166.382 199.918C163.393 203.459 160.118 206.745 157.004 210.174C152.332 215.317 147.585 221.723 141.786 225.612C139.655 227.041 137.024 228.032 134.45 228.197C132.499 228.323 130.865 227.929 129.246 226.828C125.68 224.404 122.872 220.421 120.026 217.205C116.388 213.095 112.569 209.129 108.855 205.087C105.917 201.889 103.003 198.334 99.6616 195.546L99.4911 195.407C97.1716 193.01 94.5849 189.701 91.5634 188.215C88.4967 186.707 85.2987 187.798 82.2958 188.852C79.6424 188.752 75.7911 190.687 73.0382 191.098C71.6684 191.303 70.2386 191.258 68.8545 191.401C66.4458 191.65 64.0386 192.064 61.6235 192.235C59.7399 192.368 57.8329 192.222 55.9435 192.277C54.283 192.324 52.6261 192.572 50.9649 192.576C49.0497 192.581 47.1209 192.338 45.207 192.234C41.0106 192.005 37.1844 191.816 33.0447 190.986C31.0131 190.579 29.2052 189.832 27.4913 191.353C26.4491 192.278 25.1475 194.403 23.866 194.821C23.5514 194.498 23.6203 194.448 23.5721 194.02C25.0473 192.141 26.6862 190.383 28.2736 188.599Z"/>
	<path fill="#FC8271" d="M82.2958 188.852C85.2987 187.798 88.4967 186.707 91.5634 188.215C94.5849 189.701 97.1716 193.01 99.4911 195.407C99.3704 195.458 99.2571 195.533 99.1289 195.562C96.8649 196.065 93.9488 195.887 91.6012 196.052C88.4585 196.274 85.1892 196.849 82.0453 196.808C81.3716 196.799 75.1825 195.958 75.0124 195.844L75.0096 195.414C76.4097 192.869 79.8992 190.451 82.2958 188.852Z"/>
	<path fill="#4834A4" d="M204.606 105.271C205.084 104.123 204.579 103.115 204.286 101.96Q204.802 102.661 205.356 103.332C207.098 105.404 208.395 105.938 211.028 106.189C212.641 105.418 214.89 104.628 216.654 104.309C220.295 103.652 225.031 100.505 228.528 98.903C232.926 96.8884 237.471 95.1512 241.836 93.0781C243.246 92.4084 244.121 91.0278 245.646 90.7319C247.515 90.3695 249.574 89.7339 251.348 89.0505C251.931 88.8258 253.283 89.2564 253.948 89.4021L254.215 90.1726L254.477 90.1759L254.62 89.3501L254.933 89.273C255.106 89.4896 255.131 89.4978 255.263 89.7938C255.882 91.1864 255.934 103.125 255.378 104.091C255.19 104.417 255.13 104.559 255.063 104.936L255.485 105.116C255.737 104.568 255.963 104.008 256.193 103.45C256.497 125.76 256.3 148.116 256.306 170.432C256.307 174.652 256.119 178.87 256.143 183.091L256.227 214.809C256.269 220.944 256.692 229.098 256.054 235.079C253.05 232.76 248.272 226.535 245.463 223.479L217.721 193.136C213.643 188.695 209.687 183.599 205.199 179.595L203.926 179.503C203.912 179.948 203.95 180.035 204.13 180.422C203.017 180.592 201.829 180.662 200.843 181.231C197.128 183.374 190.994 185.414 186.656 185.777C185.044 185.912 183.248 185.43 181.682 185.837C179.722 186.347 178.137 188.735 176.087 188.722C173.718 190.938 171.011 193.686 169.175 196.353Q162.856 189.516 156.677 182.553C153.029 178.522 149.241 174.534 145.816 170.312L146.067 170.035C145.247 168.945 144.28 167.949 143.493 166.837C143.022 166.171 142.72 165.48 142.175 164.851C140.837 163.305 139.098 162.019 137.656 160.563C137.139 160.04 131.212 153.007 131.112 152.687C131.205 152.719 131.532 152.836 131.604 152.855C133.167 153.265 134.934 155.456 136.57 155.512C137.01 155.526 138.089 155.396 138.457 155.203C138.732 155.058 144.238 149.625 144.682 149.097C145.969 147.568 146.918 145.807 148.31 144.35C150.846 141.695 153.767 139.215 156.532 136.799C157.5 135.952 158.886 134.856 158.975 133.52Q159.594 133.517 160.213 133.492C160.347 132.667 159.683 131.764 159.304 131.052L159.608 130.555C160.712 130.951 161.581 131.963 162.465 132.715C163.582 133.665 165.26 134.878 166.758 134.756Q167.177 134.953 167.602 135.135Q168.028 135.317 168.459 135.484Q168.891 135.651 169.328 135.804Q169.765 135.956 170.207 136.093Q170.649 136.23 171.095 136.352Q171.542 136.474 171.992 136.581Q172.442 136.687 172.896 136.778Q173.35 136.869 173.806 136.945Q174.263 137.02 174.722 137.08Q175.181 137.139 175.642 137.183Q176.102 137.227 176.564 137.255Q177.026 137.283 177.489 137.295Q177.951 137.307 178.414 137.303Q178.877 137.299 179.339 137.279Q179.802 137.259 180.263 137.224Q180.724 137.188 181.184 137.136Q181.644 137.085 182.102 137.018Q182.56 136.95 183.015 136.867Q183.471 136.784 183.923 136.686Q184.375 136.587 184.823 136.473Q185.272 136.359 185.716 136.229Q186.16 136.1 186.6 135.955Q187.04 135.81 187.474 135.651Q187.908 135.491 188.337 135.317Q188.765 135.142 189.188 134.953Q189.61 134.764 190.026 134.56Q190.441 134.357 190.85 134.139Q191.258 133.921 191.659 133.689Q192.059 133.458 192.452 133.212Q192.844 132.967 193.228 132.708Q193.612 132.45 193.986 132.178Q194.361 131.906 194.726 131.622Q195.091 131.338 195.446 131.041Q195.801 130.744 196.146 130.435Q196.491 130.126 196.824 129.806Q197.158 129.485 197.481 129.154Q197.803 128.822 198.114 128.479Q198.425 128.137 198.724 127.783Q199.024 127.43 199.31 127.067Q199.597 126.704 199.871 126.331Q200.145 125.958 200.406 125.576Q200.667 125.194 200.915 124.803Q201.163 124.412 201.397 124.013Q201.631 123.614 201.852 123.207Q202.072 122.8 202.278 122.386Q202.484 121.971 202.676 121.55Q202.868 121.129 203.045 120.702Q203.223 120.274 203.385 119.841Q203.548 119.408 203.695 118.969Q203.843 118.53 203.975 118.087Q204.107 117.643 204.224 117.196Q204.341 116.748 204.443 116.296Q204.544 115.845 204.63 115.39Q204.716 114.936 204.786 114.478Q204.856 114.021 204.911 113.561Q204.965 113.102 205.004 112.64Q205.043 112.179 205.065 111.717Q205.088 111.255 205.095 110.792Q205.102 110.329 205.093 109.867Q205.084 109.404 205.059 108.942Q205.034 108.48 204.993 108.019Q204.952 107.558 204.896 107.099Q204.839 106.639 204.767 106.182Q204.694 105.725 204.606 105.271Z"/>
	<path fill="#FC8271" d="M176.087 188.722C179.203 184.919 183.223 180.861 186.79 177.464C189.079 175.283 191.934 173.268 195.249 173.423C199.213 173.609 202.709 176.792 205.199 179.595L203.926 179.503C203.912 179.948 203.95 180.035 204.13 180.422C203.017 180.592 201.829 180.662 200.843 181.231C197.128 183.374 190.994 185.414 186.656 185.777C185.044 185.912 183.248 185.43 181.682 185.837C179.722 186.347 178.137 188.735 176.087 188.722Z"/>
	<defs>
		<linearGradient id="gradient_3" gradientUnits="userSpaceOnUse" x1="85.818481" y1="1.274773" x2="129.32639" y2="75.316719">
			<stop offset="0" stop-color="#FF6E50"/>
			<stop offset="1" stop-color="#E15772"/>
		</linearGradient>
	</defs>
	<path fill="url(#gradient_3)" d="M11.0492 132.097C10.5027 128.455 10.9999 120.243 11.0067 116.04C11.0244 104.988 10.6633 93.7986 11.1402 82.764Q11.2225 80.9936 11.3916 79.2293Q11.5608 77.465 11.8165 75.7112Q12.0721 73.9574 12.4136 72.2182Q12.7551 70.4791 13.1817 68.7588Q13.6082 67.0385 14.1188 65.3413Q14.6294 63.6441 15.2227 61.974Q15.816 60.3039 16.4907 58.665Q17.1654 57.026 17.9197 55.4223Q18.6741 53.8185 19.5064 52.2537Q20.3387 50.6889 21.2468 49.1669Q22.155 47.6448 23.1368 46.1693Q24.1186 44.6937 25.1718 43.2682Q26.2249 41.8427 27.3469 40.4706Q28.4688 39.0985 29.6568 37.7833Q30.8447 36.468 32.0959 35.2127Q33.3471 33.9573 34.6584 32.765C43.9153 24.3336 56.0703 17.5225 68.3442 14.8833C71.7538 14.1502 75.3259 13.4218 78.8 13.0838C84.0829 12.5698 89.4675 12.7333 94.7701 12.7385L117.445 12.7642L182.016 12.8602C201.825 12.9756 221.637 12.6397 241.448 12.8698C246.213 12.9251 251.055 12.5518 255.803 12.7749C256.187 13.4645 256.052 14.1616 256.039 14.9384L256.013 15.2254C255.68 19.1535 256.038 23.1392 255.829 27.0787C255.777 26.92 255.15 15.6861 255.163 14.8704C255.17 14.451 255.3 14.0218 255.439 13.6295C248.922 12.5092 241.976 14.6324 235.545 13.4497C235.13 13.3733 234.704 13.3271 234.286 13.2678C234.244 13.3939 234.204 13.5207 234.159 13.6459C234.003 14.0832 233.858 14.1061 233.448 14.2864C232.193 14.8393 230.629 15.0914 229.273 15.2339C229.214 15.1999 229.155 15.1651 229.095 15.1319C228.82 14.9794 228.928 15.0341 228.605 14.9144C228.546 14.9658 228.488 15.0182 228.428 15.0685C225.02 17.9246 213.915 18.9797 209.392 21.0222C208.444 21.4504 207.186 21.1427 206.161 21.3052C204.835 21.5155 203.489 22.2172 202.103 22.4796L177.156 27.1223C173.33 27.8291 169.681 29.4015 165.873 30.1553C161.832 30.9554 157.581 31.2007 153.497 31.8042C150.662 32.2232 148.006 32.927 145.226 33.5232C142.933 34.0152 140.599 34.3284 138.308 34.8324C134.534 35.6629 129.305 37.8021 125.541 39.1218C118.496 41.5914 111.358 43.7521 104.394 46.4391C102.828 47.0436 101.441 47.9592 99.901 48.5713C96.469 49.9353 92.807 50.8972 89.4982 52.5443C83.0583 55.7501 77.3761 59.6543 71.3835 63.5454C69.5136 64.7595 67.5039 65.7573 65.6477 66.9993C63.078 68.7187 60.472 70.5877 58.0648 72.5215C57.1025 73.2946 56.2431 74.3379 55.2642 75.039C54.4596 75.6152 53.5004 75.9825 52.6892 76.5854C48.5789 79.6401 44.6522 83.6178 41.0756 87.2946C35.6677 92.854 30.1856 98.4077 24.8724 104.049C22.043 107.053 19.3852 110.285 16.2901 113.028C15.7559 113.502 15.2551 113.82 14.587 114.07C14.4906 114.106 14.3929 114.139 14.2963 114.175C13.5057 114.469 13.0002 114.733 12.3654 115.295L12.0229 115.152C11.6575 116.182 11.7012 133.334 11.8266 135.653L11.4777 135.811L11.5549 136.326L11.8476 136.373L11.5569 136.442L11.4974 136.154C11.4938 136.138 11.4855 136.122 11.4837 136.105C11.3449 134.784 11.4849 133.367 11.0492 132.097Z"/>
	<defs>
		<linearGradient id="gradient_4" gradientUnits="userSpaceOnUse" x1="74.040451" y1="128.85493" x2="85.286911" y2="185.66402">
			<stop offset="0" stop-color="#FFC250"/>
			<stop offset="1" stop-color="#FC7C72"/>
		</linearGradient>
	</defs>
	<path fill="url(#gradient_4)" d="M28.2736 188.599C41.1533 174.282 53.7583 159.698 66.9312 145.656C71.2917 141.007 75.4555 136.091 80.1253 131.747C84.6916 127.5 90.0871 124.374 96.5204 124.663Q97.6923 124.711 98.8472 124.916Q100.002 125.12 101.119 125.478Q102.236 125.835 103.295 126.339Q104.354 126.844 105.336 127.485C111.513 131.55 117.577 139.372 122.582 144.921L137.23 160.897L136.314 160.882L136.295 161.136C136.878 161.574 137.143 161.601 137.257 162.343C135.33 164.637 128.902 166.3 126.013 167.567C123.479 168.679 121.029 169.98 118.501 171.107C113.907 173.156 109.218 175.076 104.571 177.001C99.9961 178.897 95.3039 180.512 90.6963 182.328C86.8105 183.86 78.7479 187.514 74.8931 187.817C74.4835 187.849 74.0811 187.841 73.6715 187.847C69.9494 187.902 66.138 189.095 62.4381 189.583C57.8248 190.19 52.8572 190.107 48.1925 190.164C42.5043 190.234 37.1614 188.343 31.5512 188.199C30.4467 188.171 29.3754 188.539 28.2736 188.599Z"/>
	<defs>
		<linearGradient id="gradient_5" gradientUnits="userSpaceOnUse" x1="158.13969" y1="92.624695" x2="197.86902" y2="127.76757">
			<stop offset="0" stop-color="#FFBB4C"/>
			<stop offset="1" stop-color="#FA5C71"/>
		</linearGradient>
	</defs>
	<path fill="url(#gradient_5)" d="M166.758 134.756Q166.24 134.513 165.733 134.248Q165.225 133.983 164.73 133.697Q164.234 133.411 163.751 133.104Q163.268 132.797 162.799 132.47Q162.329 132.142 161.874 131.796Q161.419 131.449 160.979 131.083Q160.539 130.717 160.115 130.333Q159.691 129.948 159.284 129.546Q158.877 129.144 158.487 128.725Q158.097 128.306 157.725 127.871Q157.354 127.436 157.001 126.986Q156.648 126.535 156.315 126.07Q155.981 125.605 155.668 125.126Q155.355 124.647 155.062 124.155Q154.77 123.664 154.498 123.16Q154.227 122.656 153.977 122.141Q153.727 121.626 153.499 121.102Q153.272 120.577 153.066 120.042Q152.861 119.508 152.679 118.966Q152.497 118.423 152.337 117.874Q152.178 117.324 152.043 116.768Q151.907 116.212 151.796 115.651Q151.684 115.09 151.596 114.524Q151.508 113.959 151.444 113.39Q151.381 112.821 151.341 112.25Q151.302 111.679 151.286 111.107Q151.271 110.535 151.28 109.963Q151.289 109.391 151.323 108.82Q151.356 108.248 151.414 107.679Q151.472 107.11 151.554 106.543Q151.636 105.977 151.741 105.415Q151.847 104.852 151.977 104.295Q152.107 103.738 152.26 103.186Q152.413 102.635 152.59 102.091Q152.766 101.546 152.966 101.01Q153.165 100.474 153.388 99.9462Q153.61 99.4188 153.854 98.9014Q154.098 98.3839 154.365 97.8773Q154.631 97.3707 154.918 96.8759Q155.206 96.3811 155.514 95.8989Q155.822 95.4168 156.151 94.9482Q156.479 94.4795 156.827 94.0253Q157.175 93.5711 157.542 93.132Q157.909 92.693 158.295 92.27Q158.68 91.847 159.083 91.4407Q159.486 91.0345 159.906 90.6457Q160.326 90.257 160.762 89.8864Q161.198 89.5159 161.65 89.1642Q162.101 88.8125 162.567 88.4803Q163.033 88.1482 163.513 87.8361Q163.992 87.524 164.485 87.2326Q164.977 86.9413 165.482 86.6711Q165.986 86.4009 166.502 86.1524Q167.017 85.9039 167.543 85.6775Q168.068 85.4512 168.603 85.2474Q169.138 85.0436 169.681 84.8627Q170.224 84.6818 170.774 84.5241Q171.324 84.3665 171.88 84.2323Q172.437 84.0982 172.998 83.9879Q173.56 83.8775 174.125 83.7911Q174.691 83.7047 175.26 83.6425Q175.829 83.5802 176.4 83.5422Q176.971 83.5042 177.543 83.4905Q178.115 83.4768 178.687 83.4874Q179.259 83.498 179.83 83.533Q180.401 83.5679 180.971 83.6271Q181.54 83.6862 182.106 83.7696Q182.672 83.8529 183.234 83.9602Q183.796 84.0675 184.353 84.1986Q184.91 84.3297 185.461 84.4844Q186.012 84.6391 186.556 84.817Q187.1 84.995 187.636 85.1959Q188.172 85.3968 188.698 85.6203Q189.225 85.8438 189.742 86.0895Q190.259 86.3352 190.765 86.6027Q191.27 86.8701 191.765 87.1588Q192.259 87.4475 192.74 87.757Q193.221 88.0664 193.689 88.3961Q194.157 88.7257 194.61 89.0749Q195.063 89.4241 195.502 89.7923Q195.94 90.1605 196.362 90.5469Q196.784 90.9334 197.189 91.3375Q197.594 91.7415 197.982 92.1624Q198.369 92.5833 198.739 93.0204Q199.108 93.4574 199.459 93.9097Q199.809 94.362 200.14 94.8288Q200.471 95.2956 200.782 95.7761Q201.093 96.2566 201.383 96.7498Q201.673 97.2431 201.942 97.7482Q202.211 98.2533 202.458 98.7694Q202.705 99.2855 202.93 99.8116Q203.155 100.338 203.358 100.873Q203.56 101.408 203.74 101.952Q203.919 102.495 204.075 103.045Q204.232 103.596 204.364 104.153Q204.497 104.709 204.606 105.271Q204.694 105.725 204.767 106.182Q204.839 106.639 204.896 107.099Q204.952 107.558 204.993 108.019Q205.034 108.48 205.059 108.942Q205.084 109.404 205.093 109.867Q205.102 110.329 205.095 110.792Q205.088 111.255 205.065 111.717Q205.043 112.179 205.004 112.64Q204.965 113.102 204.911 113.561Q204.856 114.021 204.786 114.478Q204.716 114.936 204.63 115.39Q204.544 115.845 204.443 116.296Q204.341 116.748 204.224 117.196Q204.107 117.643 203.975 118.087Q203.843 118.53 203.695 118.969Q203.548 119.408 203.385 119.841Q203.223 120.274 203.045 120.702Q202.868 121.129 202.676 121.55Q202.484 121.971 202.278 122.386Q202.072 122.8 201.852 123.207Q201.631 123.614 201.397 124.013Q201.163 124.412 200.915 124.803Q200.667 125.194 200.406 125.576Q200.145 125.958 199.871 126.331Q199.597 126.704 199.31 127.067Q199.023 127.43 198.724 127.783Q198.425 128.137 198.114 128.479Q197.803 128.822 197.481 129.154Q197.158 129.485 196.824 129.806Q196.491 130.126 196.146 130.435Q195.801 130.744 195.446 131.041Q195.091 131.338 194.726 131.622Q194.361 131.906 193.986 132.178Q193.612 132.45 193.228 132.708Q192.844 132.967 192.452 133.212Q192.059 133.458 191.659 133.689Q191.258 133.921 190.85 134.139Q190.441 134.357 190.026 134.56Q189.61 134.764 189.188 134.953Q188.765 135.142 188.337 135.317Q187.908 135.491 187.474 135.651Q187.04 135.81 186.6 135.955Q186.16 136.1 185.716 136.229Q185.272 136.359 184.823 136.473Q184.375 136.587 183.923 136.686Q183.47 136.784 183.015 136.867Q182.56 136.95 182.102 137.018Q181.644 137.085 181.184 137.136Q180.724 137.188 180.263 137.224Q179.802 137.259 179.339 137.279Q178.877 137.299 178.414 137.303Q177.951 137.307 177.489 137.295Q177.026 137.283 176.564 137.255Q176.102 137.227 175.642 137.183Q175.181 137.139 174.722 137.08Q174.263 137.02 173.806 136.945Q173.35 136.869 172.896 136.778Q172.442 136.687 171.992 136.581Q171.542 136.474 171.095 136.352Q170.649 136.23 170.207 136.093Q169.765 135.956 169.328 135.804Q168.891 135.651 168.459 135.484Q168.028 135.317 167.602 135.135Q167.177 134.953 166.758 134.756Z"/>
	<path fill="#7031DB" d="M455.403 220.961C456.141 220.67 457.064 220.152 457.864 220.302C458.506 223.442 458.131 227.445 458.172 230.685C458.291 240.017 458.176 249.33 458.189 258.66Q458.433 290.076 458.224 321.492C458.165 333.841 458.966 346.251 456.866 358.492C454.896 369.979 450.414 380.61 443.995 390.312C434.522 404.632 421.666 414.665 406.058 421.564C389.896 428.163 379.145 427.995 362.138 427.985L336.947 427.966L299.072 427.953C291.117 427.937 282.95 427.559 275.022 428.111C275.311 420.48 274.694 412.768 275.204 405.149C274.914 402.538 275.112 399.688 275.111 397.052L275.105 381.136C275.094 366.546 274.794 351.912 275.073 337.326C274.916 334.541 275.071 331.702 275.025 328.907C274.861 318.723 275.012 308.541 275.058 298.356C275.104 287.84 274.124 273.456 276.064 263.471C278.718 249.802 287.227 237.634 298.71 229.887C305.156 225.538 313.383 222.518 321.088 221.486C329.689 220.333 340.401 220.987 349.286 220.99L398.125 220.905L437.97 220.762C442.404 220.748 451.61 220.22 455.403 220.961Z"/>
	<defs>
		<linearGradient id="gradient_6" gradientUnits="userSpaceOnUse" x1="496.09662" y1="277.69485" x2="365.94391" y2="366.69244">
			<stop offset="0" stop-color="#FF9048"/>
			<stop offset="1" stop-color="#E64488"/>
		</linearGradient>
	</defs>
	<path fill="url(#gradient_6)" d="M455.403 220.961C456.141 220.67 457.064 220.152 457.864 220.302C458.506 223.442 458.131 227.445 458.172 230.685C458.291 240.017 458.176 249.33 458.189 258.66Q458.433 290.076 458.224 321.492C458.165 333.841 458.966 346.251 456.866 358.492C454.896 369.979 450.414 380.61 443.995 390.312C434.522 404.632 421.666 414.665 406.058 421.564C405.151 421.44 404.254 421.361 403.339 421.309L403.311 421.144C403.591 421.022 403.844 420.931 404.067 420.714C404.705 420.095 405.508 419.698 405.828 418.858C404.353 412.926 400.24 406.681 397.131 401.425C396.613 400.549 396.15 399.286 395.51 398.539C395.286 398.278 395.124 398.04 394.947 397.744L395.238 397.325C394.487 396.762 393.1 396.376 392.212 395.943C388.311 394.041 385.092 391.803 382.328 388.395C376.97 381.791 374.477 372.647 375.387 364.246L374.851 364.082C374.776 363.779 374.721 363.507 374.697 363.195C374.691 363.105 374.688 363.016 374.683 362.926L374.371 362.917C374.27 363.51 374.191 364.064 373.932 364.614C372.576 363.622 371.994 359.628 371.46 357.949C371.314 357.939 371.118 357.929 370.978 357.904C368.406 357.444 366.531 345.247 365.999 342.701C365.55 340.559 364.837 338.287 364.621 336.119C364.436 334.268 365.074 332.4 364.739 330.541C363.886 325.813 362.722 321.259 359.82 317.354C383.85 292.617 408.301 268.203 432.709 243.838L450.783 225.845C451.769 224.867 454.684 222.535 455.279 221.541C455.38 221.371 455.362 221.155 455.403 220.961Z"/>
	<defs>
		<linearGradient id="gradient_7" gradientUnits="userSpaceOnUse" x1="423.98343" y1="345.56046" x2="385.87894" y2="391.3573">
			<stop offset="0" stop-color="#FFBC43"/>
			<stop offset="1" stop-color="#FA6E68"/>
		</linearGradient>
	</defs>
	<path fill="url(#gradient_7)" d="M375.387 364.246C375.606 362.005 376.2 359.697 376.931 357.572C379.683 349.569 385.392 343.442 393.004 339.795C400.878 336.023 408.948 336.454 416.989 339.327C423.745 342.072 430.22 347.125 433.15 354.005Q433.25 354.239 433.338 354.478C436.82 361.66 437.245 370.373 434.644 377.905Q434.387 378.638 434.094 379.358Q433.801 380.078 433.473 380.783Q433.145 381.488 432.783 382.175Q432.42 382.863 432.024 383.532Q431.629 384.201 431.2 384.849Q430.772 385.498 430.312 386.125Q429.853 386.751 429.363 387.355Q428.873 387.958 428.354 388.536Q427.834 389.115 427.287 389.667Q426.74 390.219 426.167 390.744Q425.593 391.268 424.995 391.764Q424.396 392.26 423.774 392.725Q423.151 393.191 422.507 393.625Q421.862 394.06 421.197 394.462Q420.532 394.864 419.848 395.233Q419.164 395.601 418.462 395.936C411.533 399.289 402.548 399.334 395.238 397.325C394.487 396.762 393.1 396.376 392.212 395.943C388.311 394.041 385.092 391.803 382.328 388.395C376.97 381.791 374.477 372.647 375.387 364.246Z"/>
	<path fill="#FEBB47" d="M416.989 339.327C423.745 342.072 430.22 347.125 433.15 354.005Q433.25 354.239 433.338 354.478C433.261 354.817 433.235 354.977 433.33 355.323C433.354 355.41 433.387 355.495 433.416 355.581L433.269 355.856C433.097 355.641 432.975 355.454 432.875 355.197C432.811 355.03 432.751 354.86 432.676 354.697C432.335 353.961 431.697 353.722 430.972 353.471C430.899 353.446 430.824 353.422 430.751 353.397C430.464 353.01 430.477 352.645 430.446 352.183L430.433 351.974C430.107 352.175 429.844 352.288 429.474 352.386C428.329 351.776 421.82 345.603 420.593 344.283C419.735 343.361 419.083 342.211 418.169 341.36C417.433 340.674 417.175 340.331 416.989 339.327Z"/>
	<defs>
		<linearGradient id="gradient_8" gradientUnits="userSpaceOnUse" x1="384.45062" y1="368.73007" x2="323.77667" y2="396.85043">
			<stop offset="0" stop-color="#EE4B7F"/>
			<stop offset="1" stop-color="#98359F"/>
		</linearGradient>
	</defs>
	<path fill="url(#gradient_8)" d="M359.82 317.354C362.722 321.259 363.886 325.813 364.739 330.541C365.074 332.4 364.436 334.268 364.621 336.119C364.837 338.287 365.55 340.559 365.999 342.701C366.531 345.247 368.406 357.444 370.978 357.904C371.118 357.929 371.314 357.939 371.46 357.949C371.994 359.628 372.576 363.622 373.932 364.614C374.191 364.064 374.27 363.51 374.371 362.917L374.683 362.926C374.688 363.016 374.691 363.105 374.697 363.195C374.721 363.507 374.776 363.779 374.851 364.082L375.387 364.246C374.477 372.647 376.97 381.791 382.328 388.395C385.092 391.803 388.311 394.041 392.212 395.943C393.1 396.376 394.487 396.762 395.238 397.325L394.947 397.744C395.124 398.04 395.286 398.278 395.51 398.539C396.15 399.286 396.613 400.549 397.131 401.425C400.24 406.681 404.353 412.926 405.828 418.858C405.508 419.698 404.705 420.095 404.067 420.714C403.844 420.931 403.591 421.022 403.311 421.144L403.339 421.309C404.254 421.361 405.151 421.44 406.058 421.564C389.896 428.163 379.145 427.995 362.138 427.985L336.947 427.966C336.504 427.844 336.278 427.855 335.95 427.519C336.945 427.358 338.348 427.232 339.037 426.428C339.01 425.53 338.397 425.349 338.311 424.531C338.527 424.302 338.858 424.013 339.005 423.739C339.409 422.989 338.333 422.978 338.44 422.223C338.745 420.065 338.907 417.884 338.452 415.735C336.718 407.534 327.167 395.319 323.324 386.965C321.722 383.483 320.665 379.9 319.361 376.312C318.57 374.133 317.624 372.011 316.826 369.835C316.527 369.02 316.378 368.125 316.06 367.328C315.763 366.584 315.349 366.538 314.676 366.225C313.811 364.617 315.31 364.147 315.456 362.576C316.578 361.083 318.215 359.681 319.538 358.361C322.483 355.423 325.455 352.507 328.363 349.532L359.82 317.354Z"/>
	<defs>
		<linearGradient id="gradient_9" gradientUnits="userSpaceOnUse" x1="329.65939" y1="394.20505" x2="271.94205" y2="418.57254">
			<stop offset="0" stop-color="#99389C"/>
			<stop offset="1" stop-color="#462BB2"/>
		</linearGradient>
	</defs>
	<path fill="url(#gradient_9)" d="M315.456 362.576C315.31 364.147 313.811 364.617 314.676 366.225C315.349 366.538 315.763 366.584 316.06 367.328C316.378 368.125 316.527 369.02 316.826 369.835C317.624 372.011 318.57 374.133 319.361 376.312C320.665 379.9 321.722 383.483 323.324 386.965C327.167 395.319 336.718 407.534 338.452 415.735C338.907 417.884 338.745 420.065 338.44 422.223C338.333 422.978 339.409 422.989 339.005 423.739C338.858 424.013 338.527 424.302 338.311 424.531C338.397 425.349 339.01 425.53 339.037 426.428C338.348 427.232 336.945 427.358 335.95 427.519C336.278 427.855 336.504 427.844 336.947 427.966L299.072 427.953C291.117 427.937 282.95 427.559 275.022 428.111C275.311 420.48 274.694 412.768 275.204 405.149C275.768 407.781 275.525 410.53 275.688 413.204L275.708 413C276.191 414.209 276.273 415.494 276.842 416.72C276.653 412.826 278.067 409.256 277.998 405.357C277.98 404.38 277.423 403.493 277.339 402.544C277.25 401.533 279.355 399.843 280.079 399.129L280.031 398.724C280.66 396.585 296.787 381.478 299.287 378.97L315.456 362.576Z"/>
	<path fill="#4834A4" d="M275.073 337.326C276.185 338.983 275.58 379.117 275.597 384.541C275.605 387.104 275.812 389.663 275.833 392.226C275.858 395.247 275.01 398.902 275.589 401.839L275.582 401.856C275.854 402.367 275.805 402.369 276.352 402.538C277.359 401.38 278.688 399.459 280.031 398.724L280.079 399.129C279.355 399.843 277.25 401.533 277.339 402.544C277.423 403.493 277.98 404.38 277.998 405.357C278.067 409.256 276.653 412.826 276.842 416.72C276.273 415.494 276.191 414.209 275.708 413L275.688 413.204C275.525 410.53 275.768 407.781 275.204 405.149C274.914 402.538 275.112 399.688 275.111 397.052L275.105 381.136C275.094 366.546 274.794 351.912 275.073 337.326Z"/>
	<path fill="#7031DB" d="M275.048 13.3052C276.266 13.4092 277.477 13.5238 278.69 13.6827Q285.837 13.9627 292.989 13.8557L343.982 13.7799C355.482 13.7811 367.418 13.0534 378.857 14.242C397.724 16.2023 415.906 26.3594 429.335 39.4823C448.702 58.4083 458.063 83.4718 458.29 110.309L458.232 155.654C458.224 165.515 458.545 175.524 458.125 185.367C458.088 186.232 458.04 187.03 457.627 187.808C457.728 187.991 457.786 188.072 457.851 188.26C458.281 189.491 458.367 193.162 457.838 194.256L401.278 194.397L377.973 194.451C372.357 194.446 366.629 194.56 361.036 193.966C340.565 191.794 320.102 181.571 305.333 167.387Q304.033 166.146 302.78 164.858Q301.526 163.57 300.32 162.238Q299.115 160.905 297.958 159.53Q296.802 158.154 295.697 156.737Q294.591 155.32 293.538 153.864Q292.485 152.408 291.486 150.914Q290.487 149.42 289.543 147.891Q288.599 146.362 287.711 144.8Q286.823 143.237 285.993 141.643Q285.163 140.049 284.392 138.426Q283.62 136.803 282.909 135.153Q282.197 133.503 281.546 131.828Q280.895 130.152 280.306 128.455Q279.716 126.757 279.189 125.039Q278.662 123.321 278.198 121.585Q277.734 119.849 277.333 118.097C276.606 114.783 275.785 111.232 275.717 107.833C274.982 104.219 275.19 100.058 275.14 96.3748Q274.996 86.1063 275.071 75.8372C275.153 55.0056 275.345 34.1351 275.048 13.3052Z"/>
	<path fill="#1AB0F7" d="M289.177 17.8605C287.034 17.3128 277.779 15.2827 276.677 13.9229C277.119 13.5948 278.129 13.6936 278.69 13.6827Q285.837 13.9627 292.989 13.8557L343.982 13.7799C355.482 13.7811 367.418 13.0534 378.857 14.242C397.724 16.2023 415.906 26.3594 429.335 39.4823C448.702 58.4083 458.063 83.4718 458.29 110.309L458.232 155.654C458.224 165.515 458.545 175.524 458.125 185.367C458.088 186.232 458.04 187.03 457.627 187.808C456.855 186.12 456.374 184.148 455.731 182.387C454.295 178.462 452.718 174.495 450.895 170.73C442.431 153.246 430.694 133.973 418.721 118.714C412.655 110.982 406.124 103.776 399.433 96.5904C394.394 91.1793 389.373 85.5235 383.748 80.7076C381.081 77.4298 377.182 74.4754 374.051 71.5632C357.947 56.584 338.34 39.5287 318.547 29.7437C312.355 26.6829 305.782 23.8809 299.317 21.4662C296.149 20.283 292.612 19.4719 289.569 18.0481L289.177 17.8605Z"/>
	<path fill="#2FD1EC" d="M289.177 17.8605C287.034 17.3128 277.779 15.2827 276.677 13.9229C277.119 13.5948 278.129 13.6936 278.69 13.6827Q285.837 13.9627 292.989 13.8557L293.073 14.2079C292.66 14.5528 292.486 14.8155 291.91 14.7695C291.863 14.7657 291.197 14.6033 291.192 14.6022C288.797 14.0402 286.029 14.6085 283.568 14.5789L283.415 14.772C284.067 15.0747 284.562 15.2125 285.272 15.3206C285.702 15.7352 286.223 16.4061 286.719 16.7132C287.503 17.1983 288.544 17.0861 289.269 17.6695L289.177 17.8605Z"/>
	<path fill="#2D53D8" d="M275.048 13.3052C276.266 13.4092 277.477 13.5238 278.69 13.6827C278.129 13.6936 277.119 13.5948 276.677 13.9229C277.779 15.2827 287.034 17.3128 289.177 17.8605L289.569 18.0481C292.612 19.4719 296.149 20.283 299.317 21.4662C305.782 23.8809 312.355 26.6829 318.547 29.7437C338.34 39.5287 357.947 56.584 374.051 71.5632C377.182 74.4754 381.081 77.4298 383.748 80.7076C383.625 80.6432 383.501 80.581 383.38 80.5144C379.171 78.2097 371.145 69.2062 366.623 65.6422C365.987 67.4744 367.77 68.5811 367.603 70.3223C367.493 71.4686 365.376 75.8872 364.626 76.8504C363.092 77.5462 361.42 77.3594 359.895 77.9386C358.655 78.4093 357.619 79.3207 356.399 79.8449C354.322 80.7378 351.856 80.7318 349.769 81.5437C349.161 81.7801 349.253 82.4462 348.919 82.6243C347.817 83.2133 345.052 83.4232 343.749 83.6215C339.987 84.1938 336.12 84.1759 332.324 84.1105C330.734 84.083 329.049 83.8607 327.467 84.0079C326.982 84.053 326.569 84.2723 326.135 84.4758C325.365 84.8364 315.596 87.1796 314.333 87.3189C313.646 87.3949 312.836 87.2625 312.148 87.1898C311.354 87.5725 310.482 88.2138 309.634 88.4055C307.892 88.7993 306.653 87.2623 304.755 88.369C303.38 89.1709 301.846 88.4499 300.361 88.6957C299.199 88.888 298.31 90.0613 297.109 90.2045C294.453 90.5211 291.837 89.6788 289.225 89.587C288.026 89.5448 287.247 90.2594 285.983 89.9295C283.706 89.3345 279.438 87.6967 277.322 89.1016C276.556 89.6103 276.282 90.8213 276.16 91.6788C275.41 96.9761 276.81 102.53 275.717 107.833C274.982 104.219 275.19 100.058 275.14 96.3748Q274.996 86.1063 275.071 75.8372C275.153 55.0056 275.345 34.1351 275.048 13.3052Z"/>
	<defs>
		<linearGradient id="gradient_10" gradientUnits="userSpaceOnUse" x1="219.4821" y1="364.82779" x2="173.91826" y2="332.83661">
			<stop offset="0" stop-color="#842DDF"/>
			<stop offset="1" stop-color="#395CF7"/>
		</linearGradient>
	</defs>
	<path fill="url(#gradient_10)" d="M165.34 298.82C171.246 298.659 177.1 298.786 183.002 298.773Q198.872 298.622 214.743 298.715C222.763 298.732 232.009 297.724 239.861 299.073C241.472 299.349 242.925 300.255 244.099 301.372C247.057 304.186 247.209 308.48 247.258 312.308C247.316 316.707 247.469 321.438 247.117 325.815C246.776 329.056 247.035 332.668 247.032 335.943L247.076 357.486L247.038 411.09C247.038 416.693 247.305 422.326 247.238 427.923C235.091 428.265 222.861 427.996 210.707 428.009L196.092 428.019C193.777 428.018 191.332 428.181 189.03 427.98C180.185 428.252 171.297 428 162.446 428.045L102.354 428.197C78.1397 428.669 59.1721 426.62 40.1411 410.083Q39.3575 409.412 38.5909 408.722Q37.8243 408.032 37.0752 407.323Q36.3261 406.614 35.595 405.886Q34.8639 405.158 34.1512 404.413Q33.4385 403.667 32.7446 402.904Q32.0508 402.14 31.3762 401.36Q30.7017 400.579 30.0469 399.782Q29.3921 398.985 28.7574 398.172Q28.1227 397.359 27.5085 396.53Q26.8944 395.702 26.3011 394.858Q25.7079 394.014 25.1359 393.156Q24.5639 392.297 24.0136 391.425Q23.4633 390.552 22.935 389.666Q22.4066 388.78 21.9006 387.882Q21.3946 386.983 20.9112 386.071Q20.4278 385.16 19.9673 384.237Q19.5069 383.314 19.0696 382.38Q18.6324 381.446 18.2186 380.501Q17.8049 379.556 17.4149 378.601Q17.0249 377.646 16.6589 376.682Q16.2929 375.717 15.9511 374.744Q15.6094 373.771 15.292 372.789Q14.9747 371.808 14.682 370.819Q14.3893 369.829 14.1214 368.833Q13.8536 367.837 13.6107 366.835Q13.3678 365.832 13.1501 364.824Q12.9323 363.816 12.7398 362.802Q12.5474 361.789 12.3803 360.771Q12.2132 359.753 12.0717 358.731Q11.9301 357.71 11.8141 356.685Q11.6981 355.66 11.6078 354.632Q11.5175 353.604 11.4529 352.575C10.5633 347.666 11.0036 339.696 10.9985 334.522L10.9528 298.942C19.2002 298.699 27.54 298.692 35.7898 298.796C40.5689 298.856 46.0635 299.396 50.7858 298.711C60.1642 298.936 69.584 298.745 78.9675 298.753L132.316 298.776C140.317 298.766 148.318 298.652 156.318 298.73C159.285 298.758 162.394 298.542 165.34 298.82Z"/>
	<path fill="#1C85D5" d="M10.9528 298.942C19.2002 298.699 27.54 298.692 35.7898 298.796C40.5689 298.856 46.0635 299.396 50.7858 298.711C53.7835 302.872 58.8482 306.845 62.6256 310.361Q72.2269 319.351 81.9399 328.22C85.6897 331.636 89.5741 334.945 93.2412 338.447C91.2966 338.194 86.9747 333.233 84.9725 331.823C85.1962 332.709 86.0086 334.952 85.7116 335.763C84.3516 337.569 81.9004 338.262 80.4625 340.039C79.0634 341.769 80.0346 342.757 79.5624 344.514C79.0174 346.542 75.4783 349.333 75.4433 351.997C75.4239 353.474 75.5548 355.251 75.2693 356.687C75.0187 357.947 73.8947 359.72 74.1271 360.98C74.1937 361.341 74.7595 361.765 74.8699 362.263L74.3567 362.751C74.5863 363.294 74.8621 363.676 75.2152 364.142L75.3063 366.84C75.3344 367.692 75.6807 368.123 76.2031 368.765C77.2406 370.038 77.3733 373.541 77.5598 375.214C77.7827 377.214 79.8151 378.589 80.2506 380.496C80.4929 381.556 80.5134 382.752 80.901 383.767C81.5929 385.581 83.4483 387.089 84.3089 388.884C85.0429 390.415 85.6148 392.024 86.3888 393.538C87.5108 395.733 88.8959 397.813 89.9382 400.047C90.6875 401.654 91.0261 403.47 91.8722 405.015C93.6479 408.258 95.9069 411.181 97.5911 414.512C98.2065 415.729 98.9263 416.962 99.3737 418.252C100.206 420.65 100.059 422.894 101.677 424.984C101.643 425.477 101.618 425.516 101.315 425.908C101.982 426.487 102.698 426.965 102.917 427.841L102.354 428.197C78.1397 428.669 59.1721 426.62 40.1411 410.083Q39.3575 409.412 38.5909 408.722Q37.8243 408.032 37.0752 407.323Q36.3261 406.614 35.595 405.886Q34.8639 405.158 34.1512 404.413Q33.4385 403.667 32.7446 402.904Q32.0508 402.14 31.3762 401.36Q30.7017 400.579 30.0469 399.782Q29.3921 398.985 28.7574 398.172Q28.1227 397.359 27.5085 396.53Q26.8944 395.702 26.3011 394.858Q25.7079 394.014 25.1359 393.156Q24.5639 392.297 24.0136 391.425Q23.4633 390.552 22.935 389.666Q22.4066 388.78 21.9006 387.882Q21.3946 386.983 20.9112 386.071Q20.4278 385.16 19.9673 384.237Q19.5069 383.314 19.0696 382.38Q18.6324 381.446 18.2186 380.501Q17.8049 379.556 17.4149 378.601Q17.0249 377.646 16.6589 376.682Q16.2929 375.717 15.9511 374.744Q15.6094 373.771 15.292 372.789Q14.9747 371.808 14.682 370.819Q14.3893 369.829 14.1214 368.833Q13.8536 367.837 13.6107 366.835Q13.3678 365.832 13.1501 364.824Q12.9323 363.816 12.7398 362.802Q12.5474 361.789 12.3803 360.771Q12.2132 359.753 12.0717 358.731Q11.9301 357.71 11.8141 356.685Q11.6981 355.66 11.6078 354.632Q11.5175 353.604 11.4529 352.575C10.5633 347.666 11.0036 339.696 10.9985 334.522L10.9528 298.942Z"/>
	<path fill="#15567B" d="M10.9528 298.942C19.2002 298.699 27.54 298.692 35.7898 298.796C40.5689 298.856 46.0635 299.396 50.7858 298.711C53.7835 302.872 58.8482 306.845 62.6256 310.361Q72.2269 319.351 81.9399 328.22C85.6897 331.636 89.5741 334.945 93.2412 338.447C91.2966 338.194 86.9747 333.233 84.9725 331.823C83.3363 329.886 79.2839 325.759 76.9751 324.921C76.1615 325.671 76.3183 326.83 75.1189 326.775C73.9216 326.72 72.5949 326.143 71.4184 326.301C68.6356 326.676 67.9247 328.77 64.6704 327.47C61.8885 327.904 59.0532 328.185 56.2873 328.681C54.7991 328.949 53.3138 329.398 51.8201 329.605C51.3795 329.666 50.9925 329.58 50.5768 329.448C49.0571 328.964 46.7377 329.792 45.1321 330.024C41.8779 330.493 38.4133 330.708 35.2289 331.497C30.5776 332.651 21.823 337.045 17.4341 339.43C15.9541 340.235 14.7395 341.799 13.1472 342.264L12.6075 342.11C12.308 341.357 12.3971 340.329 11.8782 339.776C10.7342 343.085 12.252 348.567 11.4529 352.575C10.5633 347.666 11.0036 339.696 10.9985 334.522L10.9528 298.942Z"/>
	<path fill="#1C85D5" d="M50.7858 298.711C60.1642 298.936 69.584 298.745 78.9675 298.753L132.316 298.776C140.317 298.766 148.318 298.652 156.318 298.73C159.285 298.758 162.394 298.542 165.34 298.82C165.397 298.837 165.454 298.855 165.511 298.871C170.651 300.299 195.789 298.671 197.241 299.491C197.527 299.652 198.155 300.6 198.393 300.889C198.381 300.961 198.364 301.032 198.355 301.103C198.341 301.203 198.348 301.305 198.324 301.403C198.053 302.5 195.946 303.655 195.299 304.761C194.037 306.92 193.017 309.106 191.596 311.193C187.162 317.703 181.701 323.288 176.97 329.538C174.509 332.788 172.57 336.346 170.323 339.734C169.252 341.349 167.92 342.779 166.761 344.331C165.482 346.042 164.334 347.876 163.157 349.66C160.505 353.676 158.284 358.061 155.753 362.174C152.63 367.251 149.129 371.716 146.85 377.325C145.968 379.498 146.052 381.963 145.564 384.238L145.091 384.264L145.322 384.434L145.546 384.333L145.371 384.964C143.524 383.991 141.777 381.871 140.23 380.419C138.336 378.643 124.639 365.578 123.565 365.212C123.378 365.148 123.171 365.172 122.974 365.152C120.641 363.374 118.469 361.175 116.273 359.209Q109.065 352.75 101.932 346.207C99.0775 343.602 96.2521 340.867 93.2412 338.447C89.5741 334.945 85.6897 331.636 81.9399 328.22Q72.2268 319.351 62.6256 310.361C58.8482 306.845 53.7835 302.872 50.7858 298.711Z"/>
	<path fill="#2D53D8" d="M84.9725 331.823C86.9747 333.233 91.2966 338.194 93.2412 338.447C96.2521 340.867 99.0775 343.602 101.932 346.207Q109.065 352.75 116.273 359.209C118.469 361.175 120.641 363.374 122.974 365.152C127.353 369.576 132.253 373.602 136.834 377.834L168.503 407.056Q173.788 411.998 178.999 417.019C180.639 418.582 182.265 420.61 184.2 421.76C185.286 423.51 188.911 425.745 190.597 427.5L176.427 427.504C174.712 427.505 172.307 427.209 170.668 427.602C176.525 428.209 183.284 426.965 189.03 427.98C180.185 428.252 171.297 428 162.446 428.045L102.354 428.197L102.917 427.841C102.698 426.965 101.982 426.487 101.315 425.908C101.618 425.516 101.643 425.477 101.677 424.984C100.059 422.894 100.206 420.65 99.3737 418.252C98.9263 416.962 98.2065 415.729 97.5911 414.512C95.9069 411.181 93.6479 408.258 91.8722 405.015C91.0261 403.47 90.6875 401.654 89.9382 400.047C88.8959 397.813 87.5108 395.733 86.3888 393.538C85.6148 392.024 85.0429 390.415 84.3089 388.884C83.4483 387.089 81.5929 385.581 80.901 383.767C80.5134 382.752 80.4929 381.556 80.2506 380.496C79.8151 378.589 77.7827 377.214 77.5598 375.214C77.3733 373.541 77.2406 370.038 76.2031 368.765C75.6807 368.123 75.3344 367.692 75.3063 366.84L75.2152 364.142C74.8621 363.676 74.5863 363.294 74.3567 362.751L74.8699 362.263C74.7595 361.765 74.1937 361.341 74.1271 360.98C73.8947 359.72 75.0187 357.947 75.2693 356.687C75.5548 355.251 75.4239 353.474 75.4433 351.997C75.4783 349.333 79.0174 346.542 79.5624 344.514C80.0346 342.757 79.0634 341.769 80.4625 340.039C81.9004 338.262 84.3516 337.569 85.7116 335.763C86.0086 334.952 85.1962 332.709 84.9725 331.823Z"/>
	<defs>
		<linearGradient id="gradient_11" gradientUnits="userSpaceOnUse" x1="262.10849" y1="404.65387" x2="209.39743" y2="366.82291">
			<stop offset="0" stop-color="#D523C5"/>
			<stop offset="1" stop-color="#7E32DF"/>
		</linearGradient>
	</defs>
	<path fill="url(#gradient_11)" d="M184.2 421.76C183.754 421.13 182.217 419.34 182.225 418.602C182.234 417.76 186.517 408.608 187.187 407.005C189.18 402.239 190.253 397.095 192.548 392.447C194.464 388.566 197.225 385.098 199.602 381.501C207.349 369.776 215.391 358.056 224.141 347.054C226.391 344.225 229.035 341.71 231.441 339.012C234.515 335.566 237.368 331.937 240.348 328.412C241.872 326.608 243.873 324.85 245.046 322.81C245.29 322.386 245.354 322.047 245.366 321.562C245.379 321.054 245.392 320.794 245.629 320.32L246.121 320.163C246.896 321.198 245.897 322.512 246.223 323.54C246.554 324.582 246.958 324.342 247.117 325.815C246.776 329.056 247.035 332.668 247.032 335.943L247.076 357.486L247.038 411.09C247.038 416.693 247.305 422.326 247.238 427.923C235.091 428.265 222.861 427.996 210.707 428.009L196.092 428.019C193.777 428.018 191.332 428.181 189.03 427.98C183.284 426.965 176.525 428.209 170.668 427.602C172.307 427.209 174.712 427.505 176.427 427.504L190.597 427.5C188.911 425.745 185.286 423.51 184.2 421.76Z"/>
</svg>
